<mxfile host="65bd71144e">
    <diagram id="_-ecDtaNH2_nilGxp-5t" name="Page-1">
        <mxGraphModel dx="980" dy="680" grid="1" gridSize="10" guides="1" tooltips="1" connect="1" arrows="1" fold="1" page="1" pageScale="1" pageWidth="827" pageHeight="1169" math="0" shadow="0">
            <root>
                <mxCell id="0"/>
                <mxCell id="1" parent="0"/>
                <mxCell id="2" value="auctionHouse" style="shape=table;startSize=30;container=1;collapsible=1;childLayout=tableLayout;fixedRows=1;rowLines=0;fontStyle=1;align=center;resizeLast=1;" vertex="1" parent="1">
                    <mxGeometry x="20" y="100" width="180" height="170" as="geometry"/>
                </mxCell>
                <mxCell id="3" value="" style="shape=partialRectangle;collapsible=0;dropTarget=0;pointerEvents=0;fillColor=none;top=0;left=0;bottom=1;right=0;points=[[0,0.5],[1,0.5]];portConstraint=eastwest;" vertex="1" parent="2">
                    <mxGeometry y="30" width="180" height="30" as="geometry"/>
                </mxCell>
                <mxCell id="4" value="PK" style="shape=partialRectangle;connectable=0;fillColor=none;top=0;left=0;bottom=0;right=0;fontStyle=1;overflow=hidden;" vertex="1" parent="3">
                    <mxGeometry width="30" height="30" as="geometry"/>
                </mxCell>
                <mxCell id="5" value="companyID" style="shape=partialRectangle;connectable=0;fillColor=none;top=0;left=0;bottom=0;right=0;align=left;spacingLeft=6;fontStyle=5;overflow=hidden;" vertex="1" parent="3">
                    <mxGeometry x="30" width="150" height="30" as="geometry"/>
                </mxCell>
                <mxCell id="6" value="" style="shape=partialRectangle;collapsible=0;dropTarget=0;pointerEvents=0;fillColor=none;top=0;left=0;bottom=0;right=0;points=[[0,0.5],[1,0.5]];portConstraint=eastwest;" vertex="1" parent="2">
                    <mxGeometry y="60" width="180" height="20" as="geometry"/>
                </mxCell>
                <mxCell id="7" value="" style="shape=partialRectangle;connectable=0;fillColor=none;top=0;left=0;bottom=0;right=0;editable=1;overflow=hidden;" vertex="1" parent="6">
                    <mxGeometry width="30" height="20" as="geometry"/>
                </mxCell>
                <mxCell id="8" value="name" style="shape=partialRectangle;connectable=0;fillColor=none;top=0;left=0;bottom=0;right=0;align=left;spacingLeft=6;overflow=hidden;" vertex="1" parent="6">
                    <mxGeometry x="30" width="150" height="20" as="geometry"/>
                </mxCell>
                <mxCell id="9" value="" style="shape=partialRectangle;collapsible=0;dropTarget=0;pointerEvents=0;fillColor=none;top=0;left=0;bottom=0;right=0;points=[[0,0.5],[1,0.5]];portConstraint=eastwest;" vertex="1" parent="2">
                    <mxGeometry y="80" width="180" height="30" as="geometry"/>
                </mxCell>
                <mxCell id="10" value="" style="shape=partialRectangle;connectable=0;fillColor=none;top=0;left=0;bottom=0;right=0;editable=1;overflow=hidden;" vertex="1" parent="9">
                    <mxGeometry width="30" height="30" as="geometry"/>
                </mxCell>
                <mxCell id="11" value="address" style="shape=partialRectangle;connectable=0;fillColor=none;top=0;left=0;bottom=0;right=0;align=left;spacingLeft=6;overflow=hidden;" vertex="1" parent="9">
                    <mxGeometry x="30" width="150" height="30" as="geometry"/>
                </mxCell>
                <mxCell id="12" value="" style="shape=partialRectangle;collapsible=0;dropTarget=0;pointerEvents=0;fillColor=none;top=0;left=0;bottom=0;right=0;points=[[0,0.5],[1,0.5]];portConstraint=eastwest;" vertex="1" parent="2">
                    <mxGeometry y="110" width="180" height="30" as="geometry"/>
                </mxCell>
                <mxCell id="13" value="" style="shape=partialRectangle;connectable=0;fillColor=none;top=0;left=0;bottom=0;right=0;editable=1;overflow=hidden;" vertex="1" parent="12">
                    <mxGeometry width="30" height="30" as="geometry"/>
                </mxCell>
                <mxCell id="14" value="phoneNumber" style="shape=partialRectangle;connectable=0;fillColor=none;top=0;left=0;bottom=0;right=0;align=left;spacingLeft=6;overflow=hidden;" vertex="1" parent="12">
                    <mxGeometry x="30" width="150" height="30" as="geometry"/>
                </mxCell>
                <mxCell id="jkaiSiG_TGKAXs2sv3PF-89" value="" style="shape=partialRectangle;collapsible=0;dropTarget=0;pointerEvents=0;fillColor=none;top=0;left=0;bottom=0;right=0;points=[[0,0.5],[1,0.5]];portConstraint=eastwest;" vertex="1" parent="2">
                    <mxGeometry y="140" width="180" height="20" as="geometry"/>
                </mxCell>
                <mxCell id="jkaiSiG_TGKAXs2sv3PF-90" value="" style="shape=partialRectangle;connectable=0;fillColor=none;top=0;left=0;bottom=0;right=0;editable=1;overflow=hidden;" vertex="1" parent="jkaiSiG_TGKAXs2sv3PF-89">
                    <mxGeometry width="30" height="20" as="geometry"/>
                </mxCell>
                <mxCell id="jkaiSiG_TGKAXs2sv3PF-91" value="Row" style="shape=partialRectangle;connectable=0;fillColor=none;top=0;left=0;bottom=0;right=0;align=left;spacingLeft=6;overflow=hidden;" vertex="1" parent="jkaiSiG_TGKAXs2sv3PF-89">
                    <mxGeometry x="30" width="150" height="20" as="geometry"/>
                </mxCell>
                <mxCell id="15" value="sets" style="shape=table;startSize=30;container=1;collapsible=1;childLayout=tableLayout;fixedRows=1;rowLines=0;fontStyle=1;align=center;resizeLast=1;" vertex="1" parent="1">
                    <mxGeometry x="280" y="85" width="180" height="185" as="geometry"/>
                </mxCell>
                <mxCell id="16" value="" style="shape=partialRectangle;collapsible=0;dropTarget=0;pointerEvents=0;fillColor=none;top=0;left=0;bottom=1;right=0;points=[[0,0.5],[1,0.5]];portConstraint=eastwest;" vertex="1" parent="15">
                    <mxGeometry y="30" width="180" height="30" as="geometry"/>
                </mxCell>
                <mxCell id="17" value="PK" style="shape=partialRectangle;connectable=0;fillColor=none;top=0;left=0;bottom=0;right=0;fontStyle=1;overflow=hidden;" vertex="1" parent="16">
                    <mxGeometry width="30" height="30" as="geometry"/>
                </mxCell>
                <mxCell id="18" value="SetID" style="shape=partialRectangle;connectable=0;fillColor=none;top=0;left=0;bottom=0;right=0;align=left;spacingLeft=6;fontStyle=5;overflow=hidden;" vertex="1" parent="16">
                    <mxGeometry x="30" width="150" height="30" as="geometry"/>
                </mxCell>
                <mxCell id="19" value="" style="shape=partialRectangle;collapsible=0;dropTarget=0;pointerEvents=0;fillColor=none;top=0;left=0;bottom=0;right=0;points=[[0,0.5],[1,0.5]];portConstraint=eastwest;" vertex="1" parent="15">
                    <mxGeometry y="60" width="180" height="30" as="geometry"/>
                </mxCell>
                <mxCell id="20" value="" style="shape=partialRectangle;connectable=0;fillColor=none;top=0;left=0;bottom=0;right=0;editable=1;overflow=hidden;" vertex="1" parent="19">
                    <mxGeometry width="30" height="30" as="geometry"/>
                </mxCell>
                <mxCell id="21" value="startPrice  " style="shape=partialRectangle;connectable=0;fillColor=none;top=0;left=0;bottom=0;right=0;align=left;spacingLeft=6;overflow=hidden;" vertex="1" parent="19">
                    <mxGeometry x="30" width="150" height="30" as="geometry"/>
                </mxCell>
                <mxCell id="22" value="" style="shape=partialRectangle;collapsible=0;dropTarget=0;pointerEvents=0;fillColor=none;top=0;left=0;bottom=0;right=0;points=[[0,0.5],[1,0.5]];portConstraint=eastwest;" vertex="1" parent="15">
                    <mxGeometry y="90" width="180" height="30" as="geometry"/>
                </mxCell>
                <mxCell id="23" value="" style="shape=partialRectangle;connectable=0;fillColor=none;top=0;left=0;bottom=0;right=0;editable=1;overflow=hidden;" vertex="1" parent="22">
                    <mxGeometry width="30" height="30" as="geometry"/>
                </mxCell>
                <mxCell id="24" value="highestBid" style="shape=partialRectangle;connectable=0;fillColor=none;top=0;left=0;bottom=0;right=0;align=left;spacingLeft=6;overflow=hidden;" vertex="1" parent="22">
                    <mxGeometry x="30" width="150" height="30" as="geometry"/>
                </mxCell>
                <mxCell id="25" value="" style="shape=partialRectangle;collapsible=0;dropTarget=0;pointerEvents=0;fillColor=none;top=0;left=0;bottom=0;right=0;points=[[0,0.5],[1,0.5]];portConstraint=eastwest;" vertex="1" parent="15">
                    <mxGeometry y="120" width="180" height="30" as="geometry"/>
                </mxCell>
                <mxCell id="26" value="" style="shape=partialRectangle;connectable=0;fillColor=none;top=0;left=0;bottom=0;right=0;editable=1;overflow=hidden;" vertex="1" parent="25">
                    <mxGeometry width="30" height="30" as="geometry"/>
                </mxCell>
                <mxCell id="27" value="remAuctionTime" style="shape=partialRectangle;connectable=0;fillColor=none;top=0;left=0;bottom=0;right=0;align=left;spacingLeft=6;overflow=hidden;" vertex="1" parent="25">
                    <mxGeometry x="30" width="150" height="30" as="geometry"/>
                </mxCell>
                <mxCell id="okzCwxQVJqCX_i9wf3yn-73" value="" style="shape=partialRectangle;collapsible=0;dropTarget=0;pointerEvents=0;fillColor=none;top=0;left=0;bottom=0;right=0;points=[[0,0.5],[1,0.5]];portConstraint=eastwest;" vertex="1" parent="15">
                    <mxGeometry y="150" width="180" height="25" as="geometry"/>
                </mxCell>
                <mxCell id="okzCwxQVJqCX_i9wf3yn-74" value="FK" style="shape=partialRectangle;connectable=0;fillColor=none;top=0;left=0;bottom=0;right=0;fontStyle=0;overflow=hidden;" vertex="1" parent="okzCwxQVJqCX_i9wf3yn-73">
                    <mxGeometry width="30" height="25" as="geometry"/>
                </mxCell>
                <mxCell id="okzCwxQVJqCX_i9wf3yn-75" value="fkCompanyId" style="shape=partialRectangle;connectable=0;fillColor=none;top=0;left=0;bottom=0;right=0;align=left;spacingLeft=6;fontStyle=0;overflow=hidden;" vertex="1" parent="okzCwxQVJqCX_i9wf3yn-73">
                    <mxGeometry x="30" width="150" height="25" as="geometry"/>
                </mxCell>
                <mxCell id="28" value="customers" style="shape=table;startSize=30;container=1;collapsible=1;childLayout=tableLayout;fixedRows=1;rowLines=0;fontStyle=1;align=center;resizeLast=1;" vertex="1" parent="1">
                    <mxGeometry x="30" y="375" width="180" height="210" as="geometry"/>
                </mxCell>
                <mxCell id="29" value="" style="shape=partialRectangle;collapsible=0;dropTarget=0;pointerEvents=0;fillColor=none;top=0;left=0;bottom=1;right=0;points=[[0,0.5],[1,0.5]];portConstraint=eastwest;" vertex="1" parent="28">
                    <mxGeometry y="30" width="180" height="30" as="geometry"/>
                </mxCell>
                <mxCell id="30" value="PK" style="shape=partialRectangle;connectable=0;fillColor=none;top=0;left=0;bottom=0;right=0;fontStyle=1;overflow=hidden;" vertex="1" parent="29">
                    <mxGeometry width="30" height="30" as="geometry"/>
                </mxCell>
                <mxCell id="31" value="usernameID" style="shape=partialRectangle;connectable=0;fillColor=none;top=0;left=0;bottom=0;right=0;align=left;spacingLeft=6;fontStyle=5;overflow=hidden;" vertex="1" parent="29">
                    <mxGeometry x="30" width="150" height="30" as="geometry"/>
                </mxCell>
                <mxCell id="32" value="" style="shape=partialRectangle;collapsible=0;dropTarget=0;pointerEvents=0;fillColor=none;top=0;left=0;bottom=0;right=0;points=[[0,0.5],[1,0.5]];portConstraint=eastwest;" vertex="1" parent="28">
                    <mxGeometry y="60" width="180" height="20" as="geometry"/>
                </mxCell>
                <mxCell id="33" value="" style="shape=partialRectangle;connectable=0;fillColor=none;top=0;left=0;bottom=0;right=0;editable=1;overflow=hidden;" vertex="1" parent="32">
                    <mxGeometry width="30" height="20" as="geometry"/>
                </mxCell>
                <mxCell id="34" value="password" style="shape=partialRectangle;connectable=0;fillColor=none;top=0;left=0;bottom=0;right=0;align=left;spacingLeft=6;overflow=hidden;" vertex="1" parent="32">
                    <mxGeometry x="30" width="150" height="20" as="geometry"/>
                </mxCell>
                <mxCell id="RS7i0nEXS-DiqclOYvu5-69" value="" style="shape=partialRectangle;collapsible=0;dropTarget=0;pointerEvents=0;fillColor=none;top=0;left=0;bottom=0;right=0;points=[[0,0.5],[1,0.5]];portConstraint=eastwest;" vertex="1" parent="28">
                    <mxGeometry y="80" width="180" height="30" as="geometry"/>
                </mxCell>
                <mxCell id="RS7i0nEXS-DiqclOYvu5-70" value="" style="shape=partialRectangle;connectable=0;fillColor=none;top=0;left=0;bottom=0;right=0;editable=1;overflow=hidden;" vertex="1" parent="RS7i0nEXS-DiqclOYvu5-69">
                    <mxGeometry width="30" height="30" as="geometry"/>
                </mxCell>
                <mxCell id="RS7i0nEXS-DiqclOYvu5-71" value="Fname" style="shape=partialRectangle;connectable=0;fillColor=none;top=0;left=0;bottom=0;right=0;align=left;spacingLeft=6;overflow=hidden;" vertex="1" parent="RS7i0nEXS-DiqclOYvu5-69">
                    <mxGeometry x="30" width="150" height="30" as="geometry"/>
                </mxCell>
                <mxCell id="35" value="" style="shape=partialRectangle;collapsible=0;dropTarget=0;pointerEvents=0;fillColor=none;top=0;left=0;bottom=0;right=0;points=[[0,0.5],[1,0.5]];portConstraint=eastwest;" vertex="1" parent="28">
                    <mxGeometry y="110" width="180" height="30" as="geometry"/>
                </mxCell>
                <mxCell id="36" value="" style="shape=partialRectangle;connectable=0;fillColor=none;top=0;left=0;bottom=0;right=0;editable=1;overflow=hidden;" vertex="1" parent="35">
                    <mxGeometry width="30" height="30" as="geometry"/>
                </mxCell>
                <mxCell id="37" value="Lname" style="shape=partialRectangle;connectable=0;fillColor=none;top=0;left=0;bottom=0;right=0;align=left;spacingLeft=6;overflow=hidden;" vertex="1" parent="35">
                    <mxGeometry x="30" width="150" height="30" as="geometry"/>
                </mxCell>
                <mxCell id="38" value="" style="shape=partialRectangle;collapsible=0;dropTarget=0;pointerEvents=0;fillColor=none;top=0;left=0;bottom=0;right=0;points=[[0,0.5],[1,0.5]];portConstraint=eastwest;" vertex="1" parent="28">
                    <mxGeometry y="140" width="180" height="30" as="geometry"/>
                </mxCell>
                <mxCell id="39" value="" style="shape=partialRectangle;connectable=0;fillColor=none;top=0;left=0;bottom=0;right=0;editable=1;overflow=hidden;" vertex="1" parent="38">
                    <mxGeometry width="30" height="30" as="geometry"/>
                </mxCell>
                <mxCell id="40" value="email" style="shape=partialRectangle;connectable=0;fillColor=none;top=0;left=0;bottom=0;right=0;align=left;spacingLeft=6;overflow=hidden;" vertex="1" parent="38">
                    <mxGeometry x="30" width="150" height="30" as="geometry"/>
                </mxCell>
                <mxCell id="WG-mKFCgVObB8WDmo26c-69" value="" style="shape=partialRectangle;collapsible=0;dropTarget=0;pointerEvents=0;fillColor=none;top=0;left=0;bottom=0;right=0;points=[[0,0.5],[1,0.5]];portConstraint=eastwest;" vertex="1" parent="28">
                    <mxGeometry y="170" width="180" height="30" as="geometry"/>
                </mxCell>
                <mxCell id="WG-mKFCgVObB8WDmo26c-70" value="FK" style="shape=partialRectangle;connectable=0;fillColor=none;top=0;left=0;bottom=0;right=0;fontStyle=0;overflow=hidden;" vertex="1" parent="WG-mKFCgVObB8WDmo26c-69">
                    <mxGeometry width="30" height="30" as="geometry"/>
                </mxCell>
                <mxCell id="WG-mKFCgVObB8WDmo26c-71" value="fkBidId" style="shape=partialRectangle;connectable=0;fillColor=none;top=0;left=0;bottom=0;right=0;align=left;spacingLeft=6;fontStyle=0;overflow=hidden;" vertex="1" parent="WG-mKFCgVObB8WDmo26c-69">
                    <mxGeometry x="30" width="150" height="30" as="geometry"/>
                </mxCell>
                <mxCell id="41" value="bids" style="shape=table;startSize=30;container=1;collapsible=1;childLayout=tableLayout;fixedRows=1;rowLines=0;fontStyle=1;align=center;resizeLast=1;" vertex="1" parent="1">
                    <mxGeometry x="260" y="320" width="180" height="200" as="geometry"/>
                </mxCell>
                <mxCell id="42" value="" style="shape=partialRectangle;collapsible=0;dropTarget=0;pointerEvents=0;fillColor=none;top=0;left=0;bottom=1;right=0;points=[[0,0.5],[1,0.5]];portConstraint=eastwest;" vertex="1" parent="41">
                    <mxGeometry y="30" width="180" height="40" as="geometry"/>
                </mxCell>
                <mxCell id="43" value="PK" style="shape=partialRectangle;connectable=0;fillColor=none;top=0;left=0;bottom=0;right=0;fontStyle=1;overflow=hidden;" vertex="1" parent="42">
                    <mxGeometry width="30" height="40" as="geometry"/>
                </mxCell>
                <mxCell id="44" value="bidID" style="shape=partialRectangle;connectable=0;fillColor=none;top=0;left=0;bottom=0;right=0;align=left;spacingLeft=6;fontStyle=5;overflow=hidden;" vertex="1" parent="42">
                    <mxGeometry x="30" width="150" height="40" as="geometry"/>
                </mxCell>
                <mxCell id="48" value="" style="shape=partialRectangle;collapsible=0;dropTarget=0;pointerEvents=0;fillColor=none;top=0;left=0;bottom=0;right=0;points=[[0,0.5],[1,0.5]];portConstraint=eastwest;" vertex="1" parent="41">
                    <mxGeometry y="70" width="180" height="30" as="geometry"/>
                </mxCell>
                <mxCell id="49" value="" style="shape=partialRectangle;connectable=0;fillColor=none;top=0;left=0;bottom=0;right=0;editable=1;overflow=hidden;" vertex="1" parent="48">
                    <mxGeometry width="30" height="30" as="geometry"/>
                </mxCell>
                <mxCell id="50" value="amount" style="shape=partialRectangle;connectable=0;fillColor=none;top=0;left=0;bottom=0;right=0;align=left;spacingLeft=6;overflow=hidden;" vertex="1" parent="48">
                    <mxGeometry x="30" width="150" height="30" as="geometry"/>
                </mxCell>
                <mxCell id="51" value="" style="shape=partialRectangle;collapsible=0;dropTarget=0;pointerEvents=0;fillColor=none;top=0;left=0;bottom=0;right=0;points=[[0,0.5],[1,0.5]];portConstraint=eastwest;" vertex="1" parent="41">
                    <mxGeometry y="100" width="180" height="30" as="geometry"/>
                </mxCell>
                <mxCell id="52" value="" style="shape=partialRectangle;connectable=0;fillColor=none;top=0;left=0;bottom=0;right=0;editable=1;overflow=hidden;" vertex="1" parent="51">
                    <mxGeometry width="30" height="30" as="geometry"/>
                </mxCell>
                <mxCell id="53" value="date" style="shape=partialRectangle;connectable=0;fillColor=none;top=0;left=0;bottom=0;right=0;align=left;spacingLeft=6;overflow=hidden;" vertex="1" parent="51">
                    <mxGeometry x="30" width="150" height="30" as="geometry"/>
                </mxCell>
                <mxCell id="MmuCi5fW6ZaxmAht0QoX-69" value="" style="shape=partialRectangle;collapsible=0;dropTarget=0;pointerEvents=0;fillColor=none;top=0;left=0;bottom=0;right=0;points=[[0,0.5],[1,0.5]];portConstraint=eastwest;" vertex="1" parent="41">
                    <mxGeometry y="130" width="180" height="30" as="geometry"/>
                </mxCell>
                <mxCell id="MmuCi5fW6ZaxmAht0QoX-70" value="" style="shape=partialRectangle;connectable=0;fillColor=none;top=0;left=0;bottom=0;right=0;editable=1;overflow=hidden;" vertex="1" parent="MmuCi5fW6ZaxmAht0QoX-69">
                    <mxGeometry width="30" height="30" as="geometry"/>
                </mxCell>
                <mxCell id="MmuCi5fW6ZaxmAht0QoX-71" value="time" style="shape=partialRectangle;connectable=0;fillColor=none;top=0;left=0;bottom=0;right=0;align=left;spacingLeft=6;overflow=hidden;" vertex="1" parent="MmuCi5fW6ZaxmAht0QoX-69">
                    <mxGeometry x="30" width="150" height="30" as="geometry"/>
                </mxCell>
                <mxCell id="WG-mKFCgVObB8WDmo26c-73" value="" style="shape=partialRectangle;collapsible=0;dropTarget=0;pointerEvents=0;fillColor=none;top=0;left=0;bottom=0;right=0;points=[[0,0.5],[1,0.5]];portConstraint=eastwest;" vertex="1" parent="41">
                    <mxGeometry y="160" width="180" height="30" as="geometry"/>
                </mxCell>
                <mxCell id="WG-mKFCgVObB8WDmo26c-74" value="FK" style="shape=partialRectangle;connectable=0;fillColor=none;top=0;left=0;bottom=0;right=0;fontStyle=0;overflow=hidden;" vertex="1" parent="WG-mKFCgVObB8WDmo26c-73">
                    <mxGeometry width="30" height="30" as="geometry"/>
                </mxCell>
                <mxCell id="WG-mKFCgVObB8WDmo26c-75" value="fkUsernameId" style="shape=partialRectangle;connectable=0;fillColor=none;top=0;left=0;bottom=0;right=0;align=left;spacingLeft=6;fontStyle=0;overflow=hidden;" vertex="1" parent="WG-mKFCgVObB8WDmo26c-73">
                    <mxGeometry x="30" width="150" height="30" as="geometry"/>
                </mxCell>
                <mxCell id="56" value="products" style="shape=table;startSize=30;container=1;collapsible=1;childLayout=tableLayout;fixedRows=1;rowLines=0;fontStyle=1;align=center;resizeLast=1;" vertex="1" parent="1">
                    <mxGeometry x="530" y="80" width="180" height="180" as="geometry"/>
                </mxCell>
                <mxCell id="57" value="" style="shape=partialRectangle;collapsible=0;dropTarget=0;pointerEvents=0;fillColor=none;top=0;left=0;bottom=1;right=0;points=[[0,0.5],[1,0.5]];portConstraint=eastwest;" vertex="1" parent="56">
                    <mxGeometry y="30" width="180" height="30" as="geometry"/>
                </mxCell>
                <mxCell id="58" value="PK" style="shape=partialRectangle;connectable=0;fillColor=none;top=0;left=0;bottom=0;right=0;fontStyle=1;overflow=hidden;" vertex="1" parent="57">
                    <mxGeometry width="30" height="30" as="geometry"/>
                </mxCell>
                <mxCell id="59" value="productID" style="shape=partialRectangle;connectable=0;fillColor=none;top=0;left=0;bottom=0;right=0;align=left;spacingLeft=6;fontStyle=5;overflow=hidden;" vertex="1" parent="57">
                    <mxGeometry x="30" width="150" height="30" as="geometry"/>
                </mxCell>
                <mxCell id="60" value="" style="shape=partialRectangle;collapsible=0;dropTarget=0;pointerEvents=0;fillColor=none;top=0;left=0;bottom=0;right=0;points=[[0,0.5],[1,0.5]];portConstraint=eastwest;" vertex="1" parent="56">
                    <mxGeometry y="60" width="180" height="30" as="geometry"/>
                </mxCell>
                <mxCell id="61" value="" style="shape=partialRectangle;connectable=0;fillColor=none;top=0;left=0;bottom=0;right=0;editable=1;overflow=hidden;" vertex="1" parent="60">
                    <mxGeometry width="30" height="30" as="geometry"/>
                </mxCell>
                <mxCell id="62" value="ProductName" style="shape=partialRectangle;connectable=0;fillColor=none;top=0;left=0;bottom=0;right=0;align=left;spacingLeft=6;overflow=hidden;" vertex="1" parent="60">
                    <mxGeometry x="30" width="150" height="30" as="geometry"/>
                </mxCell>
                <mxCell id="63" value="" style="shape=partialRectangle;collapsible=0;dropTarget=0;pointerEvents=0;fillColor=none;top=0;left=0;bottom=0;right=0;points=[[0,0.5],[1,0.5]];portConstraint=eastwest;" vertex="1" parent="56">
                    <mxGeometry y="90" width="180" height="30" as="geometry"/>
                </mxCell>
                <mxCell id="64" value="" style="shape=partialRectangle;connectable=0;fillColor=none;top=0;left=0;bottom=0;right=0;editable=1;overflow=hidden;" vertex="1" parent="63">
                    <mxGeometry width="30" height="30" as="geometry"/>
                </mxCell>
                <mxCell id="65" value="description" style="shape=partialRectangle;connectable=0;fillColor=none;top=0;left=0;bottom=0;right=0;align=left;spacingLeft=6;overflow=hidden;" vertex="1" parent="63">
                    <mxGeometry x="30" width="150" height="30" as="geometry"/>
                </mxCell>
                <mxCell id="66" value="" style="shape=partialRectangle;collapsible=0;dropTarget=0;pointerEvents=0;fillColor=none;top=0;left=0;bottom=0;right=0;points=[[0,0.5],[1,0.5]];portConstraint=eastwest;" vertex="1" parent="56">
                    <mxGeometry y="120" width="180" height="30" as="geometry"/>
                </mxCell>
                <mxCell id="67" value="" style="shape=partialRectangle;connectable=0;fillColor=none;top=0;left=0;bottom=0;right=0;editable=1;overflow=hidden;" vertex="1" parent="66">
                    <mxGeometry width="30" height="30" as="geometry"/>
                </mxCell>
                <mxCell id="68" value="photo" style="shape=partialRectangle;connectable=0;fillColor=none;top=0;left=0;bottom=0;right=0;align=left;spacingLeft=6;overflow=hidden;" vertex="1" parent="66">
                    <mxGeometry x="30" width="150" height="30" as="geometry"/>
                </mxCell>
                <mxCell id="okzCwxQVJqCX_i9wf3yn-77" value="" style="shape=partialRectangle;collapsible=0;dropTarget=0;pointerEvents=0;fillColor=none;top=0;left=0;bottom=0;right=0;points=[[0,0.5],[1,0.5]];portConstraint=eastwest;" vertex="1" parent="56">
                    <mxGeometry y="150" width="180" height="20" as="geometry"/>
                </mxCell>
                <mxCell id="okzCwxQVJqCX_i9wf3yn-78" value="FK" style="shape=partialRectangle;connectable=0;fillColor=none;top=0;left=0;bottom=0;right=0;fontStyle=0;overflow=hidden;" vertex="1" parent="okzCwxQVJqCX_i9wf3yn-77">
                    <mxGeometry width="30" height="20" as="geometry"/>
                </mxCell>
                <mxCell id="okzCwxQVJqCX_i9wf3yn-79" value="fkSetId" style="shape=partialRectangle;connectable=0;fillColor=none;top=0;left=0;bottom=0;right=0;align=left;spacingLeft=6;fontStyle=0;overflow=hidden;" vertex="1" parent="okzCwxQVJqCX_i9wf3yn-77">
                    <mxGeometry x="30" width="150" height="20" as="geometry"/>
                </mxCell>
                <mxCell id="WG-mKFCgVObB8WDmo26c-76" value="" style="edgeStyle=entityRelationEdgeStyle;fontSize=12;html=1;endArrow=ERoneToMany;fontColor=#000000;entryX=0;entryY=0.5;entryDx=0;entryDy=0;" edge="1" parent="1" target="okzCwxQVJqCX_i9wf3yn-73">
                    <mxGeometry width="100" height="100" relative="1" as="geometry">
                        <mxPoint x="200" y="150" as="sourcePoint"/>
                        <mxPoint x="300" y="50" as="targetPoint"/>
                    </mxGeometry>
                </mxCell>
                <mxCell id="WG-mKFCgVObB8WDmo26c-77" value="" style="edgeStyle=entityRelationEdgeStyle;fontSize=12;html=1;endArrow=ERzeroToMany;endFill=1;startArrow=ERzeroToMany;fontColor=#000000;entryX=0;entryY=0.5;entryDx=0;entryDy=0;" edge="1" parent="1" target="okzCwxQVJqCX_i9wf3yn-77">
                    <mxGeometry width="100" height="100" relative="1" as="geometry">
                        <mxPoint x="460" y="130" as="sourcePoint"/>
                        <mxPoint x="560" y="30" as="targetPoint"/>
                    </mxGeometry>
                </mxCell>
                <mxCell id="WG-mKFCgVObB8WDmo26c-78" value="" style="edgeStyle=orthogonalEdgeStyle;fontSize=12;html=1;endArrow=ERmany;startArrow=ERmany;fontColor=#000000;exitX=0;exitY=0.5;exitDx=0;exitDy=0;entryX=0;entryY=0.5;entryDx=0;entryDy=0;" edge="1" parent="1" source="16" target="42">
                    <mxGeometry width="100" height="100" relative="1" as="geometry">
                        <mxPoint x="230" y="120" as="sourcePoint"/>
                        <mxPoint x="230" y="380" as="targetPoint"/>
                    </mxGeometry>
                </mxCell>
                <mxCell id="WG-mKFCgVObB8WDmo26c-79" value="" style="fontSize=12;html=1;endArrow=ERmany;startArrow=ERmany;fontColor=#000000;exitX=1;exitY=0.5;exitDx=0;exitDy=0;entryX=0;entryY=0.5;entryDx=0;entryDy=0;" edge="1" parent="1" source="29" target="WG-mKFCgVObB8WDmo26c-73">
                    <mxGeometry width="100" height="100" relative="1" as="geometry">
                        <mxPoint x="250" y="700" as="sourcePoint"/>
                        <mxPoint x="240" y="430" as="targetPoint"/>
                    </mxGeometry>
                </mxCell>
                <mxCell id="WG-mKFCgVObB8WDmo26c-94" value="address" style="shape=table;startSize=30;container=1;collapsible=1;childLayout=tableLayout;fixedRows=1;rowLines=0;fontStyle=1;align=center;resizeLast=1;fontColor=#FFFFFF;" vertex="1" parent="1">
                    <mxGeometry x="540" y="350" width="180" height="190" as="geometry"/>
                </mxCell>
                <mxCell id="WG-mKFCgVObB8WDmo26c-95" value="" style="shape=partialRectangle;collapsible=0;dropTarget=0;pointerEvents=0;fillColor=none;top=0;left=0;bottom=1;right=0;points=[[0,0.5],[1,0.5]];portConstraint=eastwest;" vertex="1" parent="WG-mKFCgVObB8WDmo26c-94">
                    <mxGeometry y="30" width="180" height="30" as="geometry"/>
                </mxCell>
                <mxCell id="WG-mKFCgVObB8WDmo26c-96" value="PK" style="shape=partialRectangle;connectable=0;fillColor=none;top=0;left=0;bottom=0;right=0;fontStyle=1;overflow=hidden;" vertex="1" parent="WG-mKFCgVObB8WDmo26c-95">
                    <mxGeometry width="30" height="30" as="geometry"/>
                </mxCell>
                <mxCell id="WG-mKFCgVObB8WDmo26c-97" value="addressId" style="shape=partialRectangle;connectable=0;fillColor=none;top=0;left=0;bottom=0;right=0;align=left;spacingLeft=6;fontStyle=5;overflow=hidden;" vertex="1" parent="WG-mKFCgVObB8WDmo26c-95">
                    <mxGeometry x="30" width="150" height="30" as="geometry"/>
                </mxCell>
                <mxCell id="WG-mKFCgVObB8WDmo26c-98" value="" style="shape=partialRectangle;collapsible=0;dropTarget=0;pointerEvents=0;fillColor=none;top=0;left=0;bottom=0;right=0;points=[[0,0.5],[1,0.5]];portConstraint=eastwest;" vertex="1" parent="WG-mKFCgVObB8WDmo26c-94">
                    <mxGeometry y="60" width="180" height="30" as="geometry"/>
                </mxCell>
                <mxCell id="WG-mKFCgVObB8WDmo26c-99" value="" style="shape=partialRectangle;connectable=0;fillColor=none;top=0;left=0;bottom=0;right=0;editable=1;overflow=hidden;" vertex="1" parent="WG-mKFCgVObB8WDmo26c-98">
                    <mxGeometry width="30" height="30" as="geometry"/>
                </mxCell>
                <mxCell id="WG-mKFCgVObB8WDmo26c-100" value="country" style="shape=partialRectangle;connectable=0;fillColor=none;top=0;left=0;bottom=0;right=0;align=left;spacingLeft=6;overflow=hidden;" vertex="1" parent="WG-mKFCgVObB8WDmo26c-98">
                    <mxGeometry x="30" width="150" height="30" as="geometry"/>
                </mxCell>
                <mxCell id="WG-mKFCgVObB8WDmo26c-101" value="" style="shape=partialRectangle;collapsible=0;dropTarget=0;pointerEvents=0;fillColor=none;top=0;left=0;bottom=0;right=0;points=[[0,0.5],[1,0.5]];portConstraint=eastwest;" vertex="1" parent="WG-mKFCgVObB8WDmo26c-94">
                    <mxGeometry y="90" width="180" height="30" as="geometry"/>
                </mxCell>
                <mxCell id="WG-mKFCgVObB8WDmo26c-102" value="" style="shape=partialRectangle;connectable=0;fillColor=none;top=0;left=0;bottom=0;right=0;editable=1;overflow=hidden;" vertex="1" parent="WG-mKFCgVObB8WDmo26c-101">
                    <mxGeometry width="30" height="30" as="geometry"/>
                </mxCell>
                <mxCell id="WG-mKFCgVObB8WDmo26c-103" value="city" style="shape=partialRectangle;connectable=0;fillColor=none;top=0;left=0;bottom=0;right=0;align=left;spacingLeft=6;overflow=hidden;" vertex="1" parent="WG-mKFCgVObB8WDmo26c-101">
                    <mxGeometry x="30" width="150" height="30" as="geometry"/>
                </mxCell>
                <mxCell id="WG-mKFCgVObB8WDmo26c-104" value="" style="shape=partialRectangle;collapsible=0;dropTarget=0;pointerEvents=0;fillColor=none;top=0;left=0;bottom=0;right=0;points=[[0,0.5],[1,0.5]];portConstraint=eastwest;" vertex="1" parent="WG-mKFCgVObB8WDmo26c-94">
                    <mxGeometry y="120" width="180" height="30" as="geometry"/>
                </mxCell>
                <mxCell id="WG-mKFCgVObB8WDmo26c-105" value="" style="shape=partialRectangle;connectable=0;fillColor=none;top=0;left=0;bottom=0;right=0;editable=1;overflow=hidden;" vertex="1" parent="WG-mKFCgVObB8WDmo26c-104">
                    <mxGeometry width="30" height="30" as="geometry"/>
                </mxCell>
                <mxCell id="WG-mKFCgVObB8WDmo26c-106" value="street" style="shape=partialRectangle;connectable=0;fillColor=none;top=0;left=0;bottom=0;right=0;align=left;spacingLeft=6;overflow=hidden;" vertex="1" parent="WG-mKFCgVObB8WDmo26c-104">
                    <mxGeometry x="30" width="150" height="30" as="geometry"/>
                </mxCell>
                <mxCell id="WG-mKFCgVObB8WDmo26c-108" value="" style="shape=partialRectangle;collapsible=0;dropTarget=0;pointerEvents=0;fillColor=none;top=0;left=0;bottom=0;right=0;points=[[0,0.5],[1,0.5]];portConstraint=eastwest;" vertex="1" parent="WG-mKFCgVObB8WDmo26c-94">
                    <mxGeometry y="150" width="180" height="30" as="geometry"/>
                </mxCell>
                <mxCell id="WG-mKFCgVObB8WDmo26c-109" value="" style="shape=partialRectangle;connectable=0;fillColor=none;top=0;left=0;bottom=0;right=0;editable=1;overflow=hidden;" vertex="1" parent="WG-mKFCgVObB8WDmo26c-108">
                    <mxGeometry width="30" height="30" as="geometry"/>
                </mxCell>
                <mxCell id="WG-mKFCgVObB8WDmo26c-110" value="zipCode" style="shape=partialRectangle;connectable=0;fillColor=none;top=0;left=0;bottom=0;right=0;align=left;spacingLeft=6;overflow=hidden;" vertex="1" parent="WG-mKFCgVObB8WDmo26c-108">
                    <mxGeometry x="30" width="150" height="30" as="geometry"/>
                </mxCell>
            </root>
        </mxGraphModel>
    </diagram>
    <diagram id="UfC3mKx8X0ebHj1cDNM0" name="Page-2">
        <mxGraphModel dx="1675" dy="680" grid="1" gridSize="10" guides="1" tooltips="1" connect="1" arrows="1" fold="1" page="1" pageScale="1" pageWidth="827" pageHeight="1169" math="0" shadow="0">
            <root>
                <mxCell id="xQ6SdXDwBhSgZbaUhN9S-0"/>
                <mxCell id="xQ6SdXDwBhSgZbaUhN9S-1" parent="xQ6SdXDwBhSgZbaUhN9S-0"/>
                <mxCell id="9LM8lRpmFgQxNfPVeh4y-0" value="&lt;font color=&quot;#000000&quot;&gt;auctionHouse&lt;/font&gt;" style="whiteSpace=wrap;html=1;align=center;fillColor=#dae8fc;strokeColor=#6c8ebf;gradientColor=#7ea6e0;" vertex="1" parent="xQ6SdXDwBhSgZbaUhN9S-1">
                    <mxGeometry x="20" y="260" width="100" height="40" as="geometry"/>
                </mxCell>
                <mxCell id="9LM8lRpmFgQxNfPVeh4y-17" style="edgeStyle=none;rounded=0;orthogonalLoop=1;jettySize=auto;html=1;entryX=0.75;entryY=0;entryDx=0;entryDy=0;fontColor=#000000;" edge="1" parent="xQ6SdXDwBhSgZbaUhN9S-1" source="9LM8lRpmFgQxNfPVeh4y-3" target="9LM8lRpmFgQxNfPVeh4y-7">
                    <mxGeometry relative="1" as="geometry"/>
                </mxCell>
                <mxCell id="9LM8lRpmFgQxNfPVeh4y-3" value="&lt;font color=&quot;#000000&quot;&gt;startPrice&lt;/font&gt;" style="ellipse;whiteSpace=wrap;html=1;align=center;gradientColor=#ffd966;fillColor=#fff2cc;strokeColor=#d6b656;" vertex="1" parent="xQ6SdXDwBhSgZbaUhN9S-1">
                    <mxGeometry x="270" y="120" width="100" height="40" as="geometry"/>
                </mxCell>
                <mxCell id="9LM8lRpmFgQxNfPVeh4y-7" value="&lt;font color=&quot;#000000&quot;&gt;Sets&lt;/font&gt;" style="whiteSpace=wrap;html=1;align=center;gradientColor=#7ea6e0;fillColor=#dae8fc;strokeColor=#6c8ebf;" vertex="1" parent="xQ6SdXDwBhSgZbaUhN9S-1">
                    <mxGeometry x="330" y="260" width="100" height="40" as="geometry"/>
                </mxCell>
                <mxCell id="9LM8lRpmFgQxNfPVeh4y-8" value="&lt;font color=&quot;#000000&quot;&gt;Products&lt;/font&gt;" style="whiteSpace=wrap;html=1;align=center;gradientColor=#7ea6e0;fillColor=#dae8fc;strokeColor=#6c8ebf;" vertex="1" parent="xQ6SdXDwBhSgZbaUhN9S-1">
                    <mxGeometry x="650" y="180" width="100" height="40" as="geometry"/>
                </mxCell>
                <mxCell id="9LM8lRpmFgQxNfPVeh4y-9" value="&lt;font color=&quot;#000000&quot;&gt;Customers&lt;/font&gt;" style="whiteSpace=wrap;html=1;align=center;gradientColor=#7ea6e0;fillColor=#dae8fc;strokeColor=#6c8ebf;" vertex="1" parent="xQ6SdXDwBhSgZbaUhN9S-1">
                    <mxGeometry x="200" y="490" width="100" height="40" as="geometry"/>
                </mxCell>
                <mxCell id="9LM8lRpmFgQxNfPVeh4y-14" style="edgeStyle=none;rounded=0;orthogonalLoop=1;jettySize=auto;html=1;entryX=0.6;entryY=0;entryDx=0;entryDy=0;entryPerimeter=0;fontColor=#000000;" edge="1" parent="xQ6SdXDwBhSgZbaUhN9S-1" source="9LM8lRpmFgQxNfPVeh4y-13" target="9LM8lRpmFgQxNfPVeh4y-0">
                    <mxGeometry relative="1" as="geometry"/>
                </mxCell>
                <mxCell id="9LM8lRpmFgQxNfPVeh4y-13" value="&lt;font color=&quot;#000000&quot;&gt;auctionHouseID&lt;/font&gt;" style="ellipse;whiteSpace=wrap;html=1;align=center;fontStyle=4;fillColor=#ffcd28;strokeColor=#d79b00;gradientColor=#ffa500;" vertex="1" parent="xQ6SdXDwBhSgZbaUhN9S-1">
                    <mxGeometry x="-60" y="140" width="100" height="40" as="geometry"/>
                </mxCell>
                <mxCell id="9LM8lRpmFgQxNfPVeh4y-16" value="" style="edgeStyle=none;rounded=0;orthogonalLoop=1;jettySize=auto;html=1;fontColor=#000000;" edge="1" parent="xQ6SdXDwBhSgZbaUhN9S-1" source="9LM8lRpmFgQxNfPVeh4y-15" target="9LM8lRpmFgQxNfPVeh4y-7">
                    <mxGeometry relative="1" as="geometry"/>
                </mxCell>
                <mxCell id="9LM8lRpmFgQxNfPVeh4y-15" value="&lt;div style=&quot;text-align: left&quot;&gt;&lt;font color=&quot;#000000&quot;&gt;setID&lt;/font&gt;&lt;/div&gt;" style="ellipse;whiteSpace=wrap;html=1;align=center;fontStyle=4;fillColor=#ffcd28;strokeColor=#d79b00;gradientColor=#ffa500;" vertex="1" parent="xQ6SdXDwBhSgZbaUhN9S-1">
                    <mxGeometry x="230" y="160" width="100" height="40" as="geometry"/>
                </mxCell>
                <mxCell id="9LM8lRpmFgQxNfPVeh4y-19" style="edgeStyle=none;rounded=0;orthogonalLoop=1;jettySize=auto;html=1;fontColor=#000000;entryX=0.83;entryY=-0.1;entryDx=0;entryDy=0;entryPerimeter=0;" edge="1" parent="xQ6SdXDwBhSgZbaUhN9S-1" source="9LM8lRpmFgQxNfPVeh4y-18" target="9LM8lRpmFgQxNfPVeh4y-7">
                    <mxGeometry relative="1" as="geometry">
                        <mxPoint x="430" y="250" as="targetPoint"/>
                    </mxGeometry>
                </mxCell>
                <mxCell id="9LM8lRpmFgQxNfPVeh4y-18" value="&lt;font color=&quot;#000000&quot;&gt;highestBid&lt;/font&gt;" style="ellipse;whiteSpace=wrap;html=1;align=center;gradientColor=#ffd966;fillColor=#fff2cc;strokeColor=#d6b656;" vertex="1" parent="xQ6SdXDwBhSgZbaUhN9S-1">
                    <mxGeometry x="320" y="80" width="100" height="40" as="geometry"/>
                </mxCell>
                <mxCell id="9LM8lRpmFgQxNfPVeh4y-21" value="" style="edgeStyle=none;rounded=0;orthogonalLoop=1;jettySize=auto;html=1;fontColor=#000000;" edge="1" parent="xQ6SdXDwBhSgZbaUhN9S-1" source="9LM8lRpmFgQxNfPVeh4y-20">
                    <mxGeometry relative="1" as="geometry">
                        <mxPoint x="420" y="250" as="targetPoint"/>
                    </mxGeometry>
                </mxCell>
                <mxCell id="9LM8lRpmFgQxNfPVeh4y-20" value="&lt;font color=&quot;#000000&quot;&gt;remAuctionTime&lt;/font&gt;" style="ellipse;whiteSpace=wrap;html=1;align=center;gradientColor=#ffd966;fillColor=#fff2cc;strokeColor=#d6b656;" vertex="1" parent="xQ6SdXDwBhSgZbaUhN9S-1">
                    <mxGeometry x="400" y="40" width="100" height="40" as="geometry"/>
                </mxCell>
                <mxCell id="9LM8lRpmFgQxNfPVeh4y-23" style="edgeStyle=none;rounded=0;orthogonalLoop=1;jettySize=auto;html=1;entryX=0;entryY=0;entryDx=0;entryDy=0;fontColor=#000000;" edge="1" parent="xQ6SdXDwBhSgZbaUhN9S-1" source="9LM8lRpmFgQxNfPVeh4y-22" target="9LM8lRpmFgQxNfPVeh4y-8">
                    <mxGeometry relative="1" as="geometry"/>
                </mxCell>
                <mxCell id="9LM8lRpmFgQxNfPVeh4y-22" value="&lt;font color=&quot;#000000&quot;&gt;name&lt;/font&gt;" style="ellipse;whiteSpace=wrap;html=1;align=center;gradientColor=#ffd966;fillColor=#fff2cc;strokeColor=#d6b656;" vertex="1" parent="xQ6SdXDwBhSgZbaUhN9S-1">
                    <mxGeometry x="560" y="70" width="100" height="40" as="geometry"/>
                </mxCell>
                <mxCell id="9LM8lRpmFgQxNfPVeh4y-25" value="" style="edgeStyle=none;rounded=0;orthogonalLoop=1;jettySize=auto;html=1;fontColor=#000000;" edge="1" parent="xQ6SdXDwBhSgZbaUhN9S-1" source="9LM8lRpmFgQxNfPVeh4y-24" target="9LM8lRpmFgQxNfPVeh4y-8">
                    <mxGeometry relative="1" as="geometry"/>
                </mxCell>
                <mxCell id="9LM8lRpmFgQxNfPVeh4y-24" value="&lt;font color=&quot;#000000&quot;&gt;productID&lt;/font&gt;" style="ellipse;whiteSpace=wrap;html=1;align=center;fontStyle=4;gradientColor=#ffa500;fillColor=#ffcd28;strokeColor=#00000;" vertex="1" parent="xQ6SdXDwBhSgZbaUhN9S-1">
                    <mxGeometry x="627" y="40" width="100" height="40" as="geometry"/>
                </mxCell>
                <mxCell id="9LM8lRpmFgQxNfPVeh4y-27" style="edgeStyle=none;rounded=0;orthogonalLoop=1;jettySize=auto;html=1;entryX=0.75;entryY=0;entryDx=0;entryDy=0;fontColor=#000000;" edge="1" parent="xQ6SdXDwBhSgZbaUhN9S-1" source="9LM8lRpmFgQxNfPVeh4y-26" target="9LM8lRpmFgQxNfPVeh4y-8">
                    <mxGeometry relative="1" as="geometry"/>
                </mxCell>
                <mxCell id="9LM8lRpmFgQxNfPVeh4y-26" value="&lt;font color=&quot;#000000&quot;&gt;description&lt;/font&gt;" style="ellipse;whiteSpace=wrap;html=1;align=center;gradientColor=#ffd966;fillColor=#fff2cc;strokeColor=#d6b656;" vertex="1" parent="xQ6SdXDwBhSgZbaUhN9S-1">
                    <mxGeometry x="710" y="10" width="100" height="40" as="geometry"/>
                </mxCell>
                <mxCell id="9LM8lRpmFgQxNfPVeh4y-29" style="edgeStyle=none;rounded=0;orthogonalLoop=1;jettySize=auto;html=1;entryX=1;entryY=0;entryDx=0;entryDy=0;fontColor=#000000;" edge="1" parent="xQ6SdXDwBhSgZbaUhN9S-1" source="9LM8lRpmFgQxNfPVeh4y-28" target="9LM8lRpmFgQxNfPVeh4y-8">
                    <mxGeometry relative="1" as="geometry"/>
                </mxCell>
                <mxCell id="9LM8lRpmFgQxNfPVeh4y-28" value="&lt;font color=&quot;#000000&quot;&gt;photo&lt;/font&gt;" style="ellipse;whiteSpace=wrap;html=1;align=center;gradientColor=#ffd966;fillColor=#fff2cc;strokeColor=#d6b656;" vertex="1" parent="xQ6SdXDwBhSgZbaUhN9S-1">
                    <mxGeometry x="790" y="50" width="100" height="40" as="geometry"/>
                </mxCell>
                <mxCell id="9LM8lRpmFgQxNfPVeh4y-36" style="edgeStyle=none;rounded=0;orthogonalLoop=1;jettySize=auto;html=1;fontColor=#000000;entryX=0.5;entryY=1;entryDx=0;entryDy=0;" edge="1" parent="xQ6SdXDwBhSgZbaUhN9S-1" source="9LM8lRpmFgQxNfPVeh4y-30" target="9LM8lRpmFgQxNfPVeh4y-33">
                    <mxGeometry relative="1" as="geometry">
                        <mxPoint x="660" y="510" as="targetPoint"/>
                    </mxGeometry>
                </mxCell>
                <mxCell id="9LM8lRpmFgQxNfPVeh4y-30" value="&lt;font color=&quot;#000000&quot;&gt;amount&lt;/font&gt;" style="ellipse;whiteSpace=wrap;html=1;align=center;gradientColor=#ffa500;fillColor=#ffcd28;strokeColor=#d79b00;" vertex="1" parent="xQ6SdXDwBhSgZbaUhN9S-1">
                    <mxGeometry x="710" y="460" width="100" height="40" as="geometry"/>
                </mxCell>
                <mxCell id="9LM8lRpmFgQxNfPVeh4y-33" value="&lt;font color=&quot;#000000&quot;&gt;Bids&lt;/font&gt;" style="whiteSpace=wrap;html=1;align=center;gradientColor=#7ea6e0;fillColor=#dae8fc;strokeColor=#6c8ebf;" vertex="1" parent="xQ6SdXDwBhSgZbaUhN9S-1">
                    <mxGeometry x="580" y="430" width="100" height="40" as="geometry"/>
                </mxCell>
                <mxCell id="9LM8lRpmFgQxNfPVeh4y-38" value="" style="edgeStyle=none;rounded=0;orthogonalLoop=1;jettySize=auto;html=1;fontColor=#000000;entryX=1;entryY=0;entryDx=0;entryDy=0;" edge="1" parent="xQ6SdXDwBhSgZbaUhN9S-1" source="9LM8lRpmFgQxNfPVeh4y-37" target="9LM8lRpmFgQxNfPVeh4y-33">
                    <mxGeometry relative="1" as="geometry"/>
                </mxCell>
                <mxCell id="9LM8lRpmFgQxNfPVeh4y-37" value="&lt;font color=&quot;#000000&quot;&gt;date&lt;/font&gt;" style="ellipse;whiteSpace=wrap;html=1;align=center;gradientColor=#ffd966;fillColor=#fff2cc;strokeColor=#d6b656;" vertex="1" parent="xQ6SdXDwBhSgZbaUhN9S-1">
                    <mxGeometry x="660" y="360" width="100" height="40" as="geometry"/>
                </mxCell>
                <mxCell id="9LM8lRpmFgQxNfPVeh4y-40" style="edgeStyle=none;rounded=0;orthogonalLoop=1;jettySize=auto;html=1;entryX=1;entryY=1;entryDx=0;entryDy=0;fontColor=#000000;" edge="1" parent="xQ6SdXDwBhSgZbaUhN9S-1" source="9LM8lRpmFgQxNfPVeh4y-39" target="9LM8lRpmFgQxNfPVeh4y-33">
                    <mxGeometry relative="1" as="geometry"/>
                </mxCell>
                <mxCell id="9LM8lRpmFgQxNfPVeh4y-39" value="&lt;font color=&quot;#000000&quot;&gt;time&lt;/font&gt;" style="ellipse;whiteSpace=wrap;html=1;align=center;gradientColor=#ffd966;fillColor=#fff2cc;strokeColor=#d6b656;" vertex="1" parent="xQ6SdXDwBhSgZbaUhN9S-1">
                    <mxGeometry x="727" y="400" width="100" height="40" as="geometry"/>
                </mxCell>
                <mxCell id="9LM8lRpmFgQxNfPVeh4y-42" value="" style="edgeStyle=none;rounded=0;orthogonalLoop=1;jettySize=auto;html=1;fontColor=#000000;" edge="1" parent="xQ6SdXDwBhSgZbaUhN9S-1" source="9LM8lRpmFgQxNfPVeh4y-41" target="9LM8lRpmFgQxNfPVeh4y-9">
                    <mxGeometry relative="1" as="geometry"/>
                </mxCell>
                <mxCell id="9LM8lRpmFgQxNfPVeh4y-41" value="&lt;font color=&quot;#000000&quot;&gt;password&lt;/font&gt;" style="ellipse;whiteSpace=wrap;html=1;align=center;gradientColor=#ffd966;fillColor=#fff2cc;strokeColor=#d6b656;" vertex="1" parent="xQ6SdXDwBhSgZbaUhN9S-1">
                    <mxGeometry x="10" y="430" width="100" height="40" as="geometry"/>
                </mxCell>
                <mxCell id="9LM8lRpmFgQxNfPVeh4y-44" value="" style="edgeStyle=none;rounded=0;orthogonalLoop=1;jettySize=auto;html=1;fontColor=#000000;" edge="1" parent="xQ6SdXDwBhSgZbaUhN9S-1" source="9LM8lRpmFgQxNfPVeh4y-43" target="9LM8lRpmFgQxNfPVeh4y-9">
                    <mxGeometry relative="1" as="geometry"/>
                </mxCell>
                <mxCell id="9LM8lRpmFgQxNfPVeh4y-43" value="&lt;font color=&quot;#000000&quot;&gt;Fname&lt;/font&gt;" style="ellipse;whiteSpace=wrap;html=1;align=center;gradientColor=#ffd966;fillColor=#fff2cc;strokeColor=#d6b656;" vertex="1" parent="xQ6SdXDwBhSgZbaUhN9S-1">
                    <mxGeometry x="50" y="480" width="100" height="40" as="geometry"/>
                </mxCell>
                <mxCell id="9LM8lRpmFgQxNfPVeh4y-46" style="edgeStyle=none;rounded=0;orthogonalLoop=1;jettySize=auto;html=1;entryX=0;entryY=0;entryDx=0;entryDy=0;fontColor=#000000;" edge="1" parent="xQ6SdXDwBhSgZbaUhN9S-1" source="9LM8lRpmFgQxNfPVeh4y-45" target="9LM8lRpmFgQxNfPVeh4y-9">
                    <mxGeometry relative="1" as="geometry"/>
                </mxCell>
                <mxCell id="9LM8lRpmFgQxNfPVeh4y-45" value="&lt;font color=&quot;#000000&quot;&gt;Lname&lt;/font&gt;" style="ellipse;whiteSpace=wrap;html=1;align=center;gradientColor=#ffd966;fillColor=#fff2cc;strokeColor=#d6b656;" vertex="1" parent="xQ6SdXDwBhSgZbaUhN9S-1">
                    <mxGeometry x="70" y="540" width="100" height="40" as="geometry"/>
                </mxCell>
                <mxCell id="9LM8lRpmFgQxNfPVeh4y-48" style="edgeStyle=none;rounded=0;orthogonalLoop=1;jettySize=auto;html=1;entryX=0.25;entryY=0;entryDx=0;entryDy=0;fontColor=#000000;" edge="1" parent="xQ6SdXDwBhSgZbaUhN9S-1" source="9LM8lRpmFgQxNfPVeh4y-47" target="9LM8lRpmFgQxNfPVeh4y-9">
                    <mxGeometry relative="1" as="geometry"/>
                </mxCell>
                <mxCell id="9LM8lRpmFgQxNfPVeh4y-47" value="&lt;font color=&quot;#000000&quot;&gt;username&lt;/font&gt;" style="ellipse;whiteSpace=wrap;html=1;align=center;fontStyle=4;gradientColor=#ffa500;fillColor=#ffcd28;strokeColor=#00000;" vertex="1" parent="xQ6SdXDwBhSgZbaUhN9S-1">
                    <mxGeometry x="90" y="390" width="100" height="40" as="geometry"/>
                </mxCell>
                <mxCell id="9LM8lRpmFgQxNfPVeh4y-50" value="" style="edgeStyle=none;rounded=0;orthogonalLoop=1;jettySize=auto;html=1;fontColor=#000000;" edge="1" parent="xQ6SdXDwBhSgZbaUhN9S-1" source="9LM8lRpmFgQxNfPVeh4y-49" target="9LM8lRpmFgQxNfPVeh4y-9">
                    <mxGeometry relative="1" as="geometry"/>
                </mxCell>
                <mxCell id="9LM8lRpmFgQxNfPVeh4y-49" value="&lt;font color=&quot;#000000&quot;&gt;email&lt;/font&gt;" style="ellipse;whiteSpace=wrap;html=1;align=center;gradientColor=#ffd966;fillColor=#fff2cc;strokeColor=#d6b656;" vertex="1" parent="xQ6SdXDwBhSgZbaUhN9S-1">
                    <mxGeometry x="170" y="570" width="100" height="40" as="geometry"/>
                </mxCell>
                <mxCell id="9LM8lRpmFgQxNfPVeh4y-51" value="" style="fontSize=12;html=1;endArrow=ERmany;fontColor=#000000;entryX=0;entryY=0.5;entryDx=0;entryDy=0;startArrow=none;exitX=1;exitY=0.5;exitDx=0;exitDy=0;" edge="1" parent="xQ6SdXDwBhSgZbaUhN9S-1" source="9LM8lRpmFgQxNfPVeh4y-2" target="9LM8lRpmFgQxNfPVeh4y-7">
                    <mxGeometry width="100" height="100" relative="1" as="geometry">
                        <mxPoint x="120" y="300" as="sourcePoint"/>
                        <mxPoint x="220" y="200" as="targetPoint"/>
                    </mxGeometry>
                </mxCell>
                <mxCell id="9LM8lRpmFgQxNfPVeh4y-52" value="" style="fontSize=12;html=1;endArrow=ERmany;startArrow=none;fontColor=#000000;entryX=0;entryY=0.75;entryDx=0;entryDy=0;" edge="1" parent="xQ6SdXDwBhSgZbaUhN9S-1" source="9LM8lRpmFgQxNfPVeh4y-56" target="9LM8lRpmFgQxNfPVeh4y-8">
                    <mxGeometry width="100" height="100" relative="1" as="geometry">
                        <mxPoint x="430" y="270" as="sourcePoint"/>
                        <mxPoint x="520" y="170" as="targetPoint"/>
                    </mxGeometry>
                </mxCell>
                <mxCell id="9LM8lRpmFgQxNfPVeh4y-2" value="selling" style="shape=rhombus;perimeter=rhombusPerimeter;whiteSpace=wrap;html=1;align=center;" vertex="1" parent="xQ6SdXDwBhSgZbaUhN9S-1">
                    <mxGeometry x="160" y="250" width="120" height="60" as="geometry"/>
                </mxCell>
                <mxCell id="9LM8lRpmFgQxNfPVeh4y-53" value="" style="fontSize=12;html=1;endArrow=none;fontColor=#000000;entryX=0;entryY=0.5;entryDx=0;entryDy=0;exitX=1;exitY=0.5;exitDx=0;exitDy=0;" edge="1" parent="xQ6SdXDwBhSgZbaUhN9S-1" source="9LM8lRpmFgQxNfPVeh4y-0" target="9LM8lRpmFgQxNfPVeh4y-2">
                    <mxGeometry width="100" height="100" relative="1" as="geometry">
                        <mxPoint x="120" y="300" as="sourcePoint"/>
                        <mxPoint x="330" y="270" as="targetPoint"/>
                    </mxGeometry>
                </mxCell>
                <mxCell id="9LM8lRpmFgQxNfPVeh4y-56" value="contain" style="shape=rhombus;perimeter=rhombusPerimeter;whiteSpace=wrap;html=1;align=center;rotation=-15;" vertex="1" parent="xQ6SdXDwBhSgZbaUhN9S-1">
                    <mxGeometry x="480" y="210" width="120" height="60" as="geometry"/>
                </mxCell>
                <mxCell id="9LM8lRpmFgQxNfPVeh4y-57" value="" style="fontSize=12;html=1;endArrow=none;startArrow=ERmany;fontColor=#000000;entryX=0;entryY=0.5;entryDx=0;entryDy=0;" edge="1" parent="xQ6SdXDwBhSgZbaUhN9S-1" target="9LM8lRpmFgQxNfPVeh4y-56">
                    <mxGeometry width="100" height="100" relative="1" as="geometry">
                        <mxPoint x="430" y="270" as="sourcePoint"/>
                        <mxPoint x="720" y="190" as="targetPoint"/>
                    </mxGeometry>
                </mxCell>
                <mxCell id="9LM8lRpmFgQxNfPVeh4y-59" value="" style="fontSize=12;html=1;endArrow=ERzeroToMany;endFill=1;startArrow=none;fontColor=#000000;entryX=0;entryY=0.5;entryDx=0;entryDy=0;exitX=1;exitY=0.5;exitDx=0;exitDy=0;" edge="1" parent="xQ6SdXDwBhSgZbaUhN9S-1" source="9LM8lRpmFgQxNfPVeh4y-58" target="9LM8lRpmFgQxNfPVeh4y-33">
                    <mxGeometry width="100" height="100" relative="1" as="geometry">
                        <mxPoint x="300" y="510" as="sourcePoint"/>
                        <mxPoint x="400" y="410" as="targetPoint"/>
                        <Array as="points"/>
                    </mxGeometry>
                </mxCell>
                <mxCell id="9LM8lRpmFgQxNfPVeh4y-58" value="&lt;font color=&quot;#ffffff&quot;&gt;placing&lt;/font&gt;" style="shape=rhombus;perimeter=rhombusPerimeter;whiteSpace=wrap;html=1;align=center;fontColor=#000000;rotation=-15;" vertex="1" parent="xQ6SdXDwBhSgZbaUhN9S-1">
                    <mxGeometry x="370" y="450" width="120" height="60" as="geometry"/>
                </mxCell>
                <mxCell id="9LM8lRpmFgQxNfPVeh4y-60" value="" style="fontSize=12;html=1;endArrow=none;endFill=1;startArrow=ERzeroToMany;fontColor=#000000;entryX=0;entryY=0.5;entryDx=0;entryDy=0;" edge="1" parent="xQ6SdXDwBhSgZbaUhN9S-1" target="9LM8lRpmFgQxNfPVeh4y-58">
                    <mxGeometry width="100" height="100" relative="1" as="geometry">
                        <mxPoint x="300" y="510" as="sourcePoint"/>
                        <mxPoint x="380" y="300" as="targetPoint"/>
                    </mxGeometry>
                </mxCell>
                <mxCell id="9LM8lRpmFgQxNfPVeh4y-62" value="" style="fontSize=12;html=1;endArrow=ERoneToMany;startArrow=ERzeroToMany;fontColor=#000000;exitX=1;exitY=1;exitDx=0;exitDy=0;entryX=0;entryY=0;entryDx=0;entryDy=0;" edge="1" parent="xQ6SdXDwBhSgZbaUhN9S-1" source="9LM8lRpmFgQxNfPVeh4y-7" target="9LM8lRpmFgQxNfPVeh4y-33">
                    <mxGeometry width="100" height="100" relative="1" as="geometry">
                        <mxPoint x="514" y="380" as="sourcePoint"/>
                        <mxPoint x="614" y="280" as="targetPoint"/>
                    </mxGeometry>
                </mxCell>
                <mxCell id="dPZ2Y3EupCfXJkaW6cb7-1" style="edgeStyle=none;rounded=0;orthogonalLoop=1;jettySize=auto;html=1;entryX=1;entryY=0;entryDx=0;entryDy=0;fontColor=#000000;" edge="1" parent="xQ6SdXDwBhSgZbaUhN9S-1" source="dPZ2Y3EupCfXJkaW6cb7-0" target="9LM8lRpmFgQxNfPVeh4y-0">
                    <mxGeometry relative="1" as="geometry"/>
                </mxCell>
                <mxCell id="dPZ2Y3EupCfXJkaW6cb7-0" value="&lt;font color=&quot;#000000&quot;&gt;address&lt;/font&gt;" style="ellipse;whiteSpace=wrap;html=1;align=center;gradientColor=#ffd966;fillColor=#fff2cc;strokeColor=#d6b656;" vertex="1" parent="xQ6SdXDwBhSgZbaUhN9S-1">
                    <mxGeometry x="60" y="50" width="100" height="40" as="geometry"/>
                </mxCell>
                <mxCell id="dPZ2Y3EupCfXJkaW6cb7-5" style="edgeStyle=none;rounded=0;orthogonalLoop=1;jettySize=auto;html=1;fontColor=#000000;" edge="1" parent="xQ6SdXDwBhSgZbaUhN9S-1" source="dPZ2Y3EupCfXJkaW6cb7-2" target="9LM8lRpmFgQxNfPVeh4y-0">
                    <mxGeometry relative="1" as="geometry"/>
                </mxCell>
                <mxCell id="dPZ2Y3EupCfXJkaW6cb7-2" value="&lt;font color=&quot;#000000&quot;&gt;email&lt;/font&gt;" style="ellipse;whiteSpace=wrap;html=1;align=center;gradientColor=#ffd966;fillColor=#fff2cc;strokeColor=#d6b656;" vertex="1" parent="xQ6SdXDwBhSgZbaUhN9S-1">
                    <mxGeometry x="-90" y="190" width="100" height="40" as="geometry"/>
                </mxCell>
                <mxCell id="dPZ2Y3EupCfXJkaW6cb7-4" value="" style="edgeStyle=none;rounded=0;orthogonalLoop=1;jettySize=auto;html=1;fontColor=#000000;" edge="1" parent="xQ6SdXDwBhSgZbaUhN9S-1" source="dPZ2Y3EupCfXJkaW6cb7-3" target="9LM8lRpmFgQxNfPVeh4y-0">
                    <mxGeometry relative="1" as="geometry"/>
                </mxCell>
                <mxCell id="dPZ2Y3EupCfXJkaW6cb7-3" value="&lt;font color=&quot;#000000&quot;&gt;phoneNumber&lt;/font&gt;" style="ellipse;whiteSpace=wrap;html=1;align=center;gradientColor=#ffd966;fillColor=#fff2cc;strokeColor=#d6b656;" vertex="1" parent="xQ6SdXDwBhSgZbaUhN9S-1">
                    <mxGeometry x="-110" y="240" width="100" height="40" as="geometry"/>
                </mxCell>
                <mxCell id="dPZ2Y3EupCfXJkaW6cb7-7" value="" style="edgeStyle=none;rounded=0;orthogonalLoop=1;jettySize=auto;html=1;fontColor=#000000;entryX=0.75;entryY=0;entryDx=0;entryDy=0;" edge="1" parent="xQ6SdXDwBhSgZbaUhN9S-1" source="dPZ2Y3EupCfXJkaW6cb7-6" target="9LM8lRpmFgQxNfPVeh4y-0">
                    <mxGeometry relative="1" as="geometry"/>
                </mxCell>
                <mxCell id="dPZ2Y3EupCfXJkaW6cb7-6" value="&lt;font color=&quot;#000000&quot;&gt;name&lt;/font&gt;" style="ellipse;whiteSpace=wrap;html=1;align=center;gradientColor=#ffd966;fillColor=#fff2cc;strokeColor=#d6b656;" vertex="1" parent="xQ6SdXDwBhSgZbaUhN9S-1">
                    <mxGeometry y="100" width="100" height="40" as="geometry"/>
                </mxCell>
            </root>
        </mxGraphModel>
    </diagram>
</mxfile>